<svg width="17" height="16" viewBox="0 0 17 16" fill="none" xmlns="http://www.w3.org/2000/svg">
<g clip-path="url(#clip0_11040_5619)">
<g clip-path="url(#clip1_11040_5619)">
<path d="M12.4533 8.34547C13.0933 8.34547 13.8233 8.05547 14.5833 7.18547C15.9533 5.60547 17.0933 2.41547 15.6833 1.19547C15.0333 0.635469 13.9833 0.615469 12.7133 1.13547C11.6633 1.56547 10.6133 2.31547 9.90325 3.12547C8.48325 4.76547 9.08325 6.02547 9.73325 6.77547L8.71325 7.84547L7.70325 6.79547C7.97325 6.43547 8.13325 6.00547 8.17325 5.53547C8.21325 4.90547 8.01325 4.28547 7.59325 3.80547L4.57325 0.355469L0.333252 3.99547L3.35325 7.45547C3.77325 7.93547 4.35325 8.22547 4.98325 8.26547C5.03325 8.26547 5.09325 8.26547 5.15325 8.26547C5.58325 8.26547 6.00325 8.15547 6.35325 7.93547L7.38325 9.23547L3.34325 13.4655C3.12325 13.6955 3.01325 13.9955 3.02325 14.3255C3.04325 14.6855 3.21325 15.0455 3.50325 15.2955C3.76325 15.5155 4.08325 15.6455 4.41325 15.6455C4.45325 15.6455 4.49325 15.6455 4.53325 15.6455C4.85325 15.6155 5.14325 15.4655 5.34325 15.2155L8.72325 10.9355L12.0033 15.0755C12.1933 15.3155 12.4733 15.4655 12.7933 15.4955C12.8333 15.4955 12.8733 15.4955 12.9133 15.4955C13.2433 15.4955 13.5633 15.3655 13.8233 15.1455C14.1133 14.8955 14.2933 14.5355 14.3033 14.1755C14.3133 13.8555 14.2033 13.5555 13.9933 13.3255L10.0633 9.22547L11.1033 7.91547C11.4833 8.14547 11.9433 8.33547 12.4633 8.33547L12.4533 8.34547ZM4.09325 6.80547L1.73325 4.09547L4.47325 1.74547L6.84325 4.45547C7.09325 4.73547 7.21325 5.09547 7.18325 5.46547C7.16325 5.82547 7.00325 6.14547 6.75325 6.37547L6.57325 6.53547L6.06325 6.94547C5.48325 7.45547 4.60325 7.39547 4.09325 6.81547V6.80547ZM10.6633 3.77547C11.2633 3.08547 12.1933 2.42547 13.1033 2.05547C13.5933 1.85547 14.0333 1.74547 14.3933 1.74547C14.6733 1.74547 14.9033 1.80547 15.0533 1.93547C15.7833 2.56547 15.1333 5.06547 13.8533 6.53547C12.9333 7.59547 12.1533 7.61547 10.9933 6.61547C9.83325 5.60547 9.74325 4.83547 10.6733 3.77547H10.6633ZM4.56325 14.5955C4.56325 14.5955 4.49325 14.6455 4.43325 14.6555C4.35325 14.6555 4.23325 14.6255 4.15325 14.5555C4.07325 14.4855 4.01325 14.3855 4.01325 14.2855C4.01325 14.2255 4.02325 14.1855 4.05325 14.1555L9.01325 8.96547L4.56325 14.5955ZM13.2733 14.0155C13.2733 14.0155 13.3133 14.0855 13.3133 14.1355C13.3133 14.2255 13.2533 14.3255 13.1633 14.4055C13.0733 14.4855 12.9633 14.5255 12.8733 14.5155C12.8233 14.5155 12.7833 14.4955 12.7633 14.4655L9.34325 10.1355L9.43325 10.0155L13.2733 14.0155Z" fill="#F5F5F5"/>
<path d="M3.67327 3.92536C3.49327 3.71536 3.18327 3.69536 2.97327 3.87536C2.76327 4.05536 2.74327 4.36536 2.92327 4.57536L4.34327 6.22536C4.44327 6.33536 4.58327 6.39536 4.71327 6.39536C4.82327 6.39536 4.94327 6.35536 5.03327 6.27536C5.24327 6.09536 5.26327 5.78536 5.08327 5.57536L3.66327 3.92536H3.67327Z" fill="#F5F5F5"/>
<path d="M6.31324 4.56559L4.89324 2.91559C4.71324 2.70559 4.40324 2.68559 4.19324 2.86559C3.98324 3.04559 3.96324 3.35559 4.14324 3.56559L5.56324 5.21559C5.66324 5.32559 5.80324 5.38559 5.93324 5.38559C6.04324 5.38559 6.16324 5.34559 6.25324 5.26559C6.46324 5.08559 6.48324 4.77559 6.30324 4.56559H6.31324Z" fill="#F5F5F5"/>
</g>
</g>
<defs>
<clipPath id="clip0_11040_5619">
<rect width="16" height="16" fill="white" transform="translate(0.333252)"/>
</clipPath>
<clipPath id="clip1_11040_5619">
<rect width="16" height="15.29" fill="white" transform="translate(0.333252 0.355469)"/>
</clipPath>
</defs>
</svg>
