<svg width="16" height="16" viewBox="0 0 16 16" fill="none" xmlns="http://www.w3.org/2000/svg">
<g clip-path="url(#clip0_11080_9830)">
<g clip-path="url(#clip1_11080_9830)">
<path d="M12.12 8.34547C12.76 8.34547 13.49 8.05547 14.25 7.18547C15.62 5.60547 16.76 2.41547 15.35 1.19547C14.7 0.635469 13.65 0.615469 12.38 1.13547C11.33 1.56547 10.28 2.31547 9.57 3.12547C8.15 4.76547 8.75 6.02547 9.4 6.77547L8.38 7.84547L7.37 6.79547C7.64 6.43547 7.8 6.00547 7.84 5.53547C7.88 4.90547 7.68 4.28547 7.26 3.80547L4.24 0.355469L0 3.99547L3.02 7.45547C3.44 7.93547 4.02 8.22547 4.65 8.26547C4.7 8.26547 4.76 8.26547 4.82 8.26547C5.25 8.26547 5.67 8.15547 6.02 7.93547L7.05 9.23547L3.01 13.4655C2.79 13.6955 2.68 13.9955 2.69 14.3255C2.71 14.6855 2.88 15.0455 3.17 15.2955C3.43 15.5155 3.75 15.6455 4.08 15.6455C4.12 15.6455 4.16 15.6455 4.2 15.6455C4.52 15.6155 4.81 15.4655 5.01 15.2155L8.39 10.9355L11.67 15.0755C11.86 15.3155 12.14 15.4655 12.46 15.4955C12.5 15.4955 12.54 15.4955 12.58 15.4955C12.91 15.4955 13.23 15.3655 13.49 15.1455C13.78 14.8955 13.96 14.5355 13.97 14.1755C13.98 13.8555 13.87 13.5555 13.66 13.3255L9.73 9.22547L10.77 7.91547C11.15 8.14547 11.61 8.33547 12.13 8.33547L12.12 8.34547ZM3.76 6.80547L1.4 4.09547L4.14 1.74547L6.51 4.45547C6.76 4.73547 6.88 5.09547 6.85 5.46547C6.83 5.82547 6.67 6.14547 6.42 6.37547L6.24 6.53547L5.73 6.94547C5.15 7.45547 4.27 7.39547 3.76 6.81547V6.80547ZM10.33 3.77547C10.93 3.08547 11.86 2.42547 12.77 2.05547C13.26 1.85547 13.7 1.74547 14.06 1.74547C14.34 1.74547 14.57 1.80547 14.72 1.93547C15.45 2.56547 14.8 5.06547 13.52 6.53547C12.6 7.59547 11.82 7.61547 10.66 6.61547C9.5 5.60547 9.41 4.83547 10.34 3.77547H10.33ZM4.23 14.5955C4.23 14.5955 4.16 14.6455 4.1 14.6555C4.02 14.6555 3.9 14.6255 3.82 14.5555C3.74 14.4855 3.68 14.3855 3.68 14.2855C3.68 14.2255 3.69 14.1855 3.72 14.1555L8.68 8.96547L4.23 14.5955ZM12.94 14.0155C12.94 14.0155 12.98 14.0855 12.98 14.1355C12.98 14.2255 12.92 14.3255 12.83 14.4055C12.74 14.4855 12.63 14.5255 12.54 14.5155C12.49 14.5155 12.45 14.4955 12.43 14.4655L9.01 10.1355L9.1 10.0155L12.94 14.0155Z" fill="#E8B931"/>
<path d="M3.33922 3.92633C3.15922 3.71633 2.84922 3.69633 2.63922 3.87633C2.42922 4.05633 2.40922 4.36633 2.58922 4.57633L4.00922 6.22633C4.10922 6.33633 4.24922 6.39633 4.37922 6.39633C4.48922 6.39633 4.60922 6.35633 4.69922 6.27633C4.90922 6.09633 4.92922 5.78633 4.74922 5.57633L3.32922 3.92633H3.33922Z" fill="#E8B931"/>
<path d="M5.97993 4.56461L4.55993 2.91461C4.37993 2.70461 4.06993 2.68461 3.85993 2.86461C3.64993 3.04461 3.62993 3.35461 3.80993 3.56461L5.22993 5.21461C5.32993 5.32461 5.46993 5.38461 5.59993 5.38461C5.70993 5.38461 5.82993 5.34461 5.91993 5.26461C6.12993 5.08461 6.14993 4.77461 5.96993 4.56461H5.97993Z" fill="#E8B931"/>
</g>
</g>
<defs>
<clipPath id="clip0_11080_9830">
<rect width="16" height="16" fill="white"/>
</clipPath>
<clipPath id="clip1_11080_9830">
<rect width="16" height="15.29" fill="white" transform="translate(0 0.355469)"/>
</clipPath>
</defs>
</svg>
