<svg width="17" height="16" viewBox="0 0 17 16" fill="none" xmlns="http://www.w3.org/2000/svg">
<g clip-path="url(#clip0_11040_5626)">
<path d="M13.7253 13.8871H2.99897L0.604493 3.97335C0.496146 3.34493 0.810353 2.73819 1.36292 2.49983C1.86132 2.28313 2.43556 2.43482 2.78227 2.88988L4.88421 5.63106L7.34369 2.23979C7.58205 1.91475 7.93959 1.71973 8.31881 1.71973C8.70886 1.71973 9.05557 1.90392 9.29393 2.22896L11.7859 5.57688L13.877 2.84654C14.2237 2.40231 14.7871 2.23979 15.2964 2.45649C15.8489 2.69485 16.1631 3.29076 16.0656 3.91917L13.7362 13.8871H13.7253ZM4.11494 12.4786H12.6094L14.5271 4.32006L12.7502 6.64952C12.5118 6.96373 12.1651 7.14792 11.7859 7.14792C11.4175 7.14792 11.06 6.96373 10.8216 6.63869L8.34048 3.29076L5.89183 6.68203C5.65347 7.00707 5.30676 7.20209 4.92754 7.20209C4.58083 7.18042 4.20162 7.02874 3.95242 6.70369L2.16469 4.37423L4.12578 12.4894L4.11494 12.4786Z" fill="#F5F5F5"/>
</g>
<defs>
<clipPath id="clip0_11040_5626">
<rect width="16" height="16" fill="white" transform="translate(0.333252)"/>
</clipPath>
</defs>
</svg>
