<svg width="6" height="6" viewBox="0 0 6 6" fill="none" xmlns="http://www.w3.org/2000/svg">
<g clip-path="url(#clip0_11018_12495)">
<path d="M2.57318 0.965051L0.455677 4.50005C0.412019 4.57566 0.388918 4.66138 0.388674 4.74868C0.388429 4.83599 0.411049 4.92183 0.454283 4.99768C0.497517 5.07353 0.559858 5.13674 0.635104 5.18101C0.710349 5.22529 0.795876 5.24909 0.883177 5.25005H5.11818C5.20548 5.24909 5.291 5.22529 5.36625 5.18101C5.44149 5.13674 5.50384 5.07353 5.54707 4.99768C5.5903 4.92183 5.61292 4.83599 5.61268 4.74868C5.61244 4.66138 5.58933 4.57566 5.54568 4.50005L3.42818 0.965051C3.38361 0.891578 3.32086 0.830831 3.24598 0.788672C3.17109 0.746513 3.08661 0.724365 3.00068 0.724365C2.91474 0.724365 2.83026 0.746513 2.75538 0.788672C2.6805 0.830831 2.61774 0.891578 2.57318 0.965051Z" fill="#85E0A3"/>
</g>
<defs>
<clipPath id="clip0_11018_12495">
<rect width="6" height="6" fill="white"/>
</clipPath>
</defs>
</svg>
