<svg width="17" height="16" viewBox="0 0 17 16" fill="none" xmlns="http://www.w3.org/2000/svg">
<g clip-path="url(#clip0_11040_5630)">
<path d="M11.6666 14V12.6667C11.6666 11.9594 11.3857 11.2811 10.8856 10.781C10.3855 10.281 9.70718 10 8.99994 10H3.66661C2.95936 10 2.28108 10.281 1.78099 10.781C1.28089 11.2811 0.999939 11.9594 0.999939 12.6667V14M15.6666 14V12.6667C15.6662 12.0758 15.4695 11.5018 15.1075 11.0349C14.7455 10.5679 14.2387 10.2344 13.6666 10.0867M10.9999 2.08667C11.5735 2.23353 12.082 2.56713 12.445 3.03487C12.8081 3.50261 13.0052 4.07789 13.0052 4.67C13.0052 5.26211 12.8081 5.83739 12.445 6.30513C12.082 6.77287 11.5735 7.10647 10.9999 7.25333M8.99994 4.66667C8.99994 6.13943 7.80603 7.33333 6.33327 7.33333C4.86051 7.33333 3.66661 6.13943 3.66661 4.66667C3.66661 3.19391 4.86051 2 6.33327 2C7.80603 2 8.99994 3.19391 8.99994 4.66667Z" stroke="#F5F5F5" stroke-width="1.6" stroke-linecap="round" stroke-linejoin="round"/>
</g>
<defs>
<clipPath id="clip0_11040_5630">
<rect width="16" height="16" fill="white" transform="translate(0.333252)"/>
</clipPath>
</defs>
</svg>
